<svg width="123" height="71" viewBox="0 0 123 71" fill="none" xmlns="http://www.w3.org/2000/svg">
<rect y="0.5" width="123" height="70" rx="10" fill="#00605C"/>
<path d="M34.8633 41.6875L33.0352 41.1484L39.3633 25.6328C35.7227 25.5234 33.2539 25.4141 31.957 25.3047L31.7227 24.25C32.8164 24.125 34.4727 24.0625 36.6914 24.0625C38.9102 24.0469 40.4414 24.0078 41.2852 23.9453L41.168 25.9844L34.8633 41.6875ZM41.2617 33.6953C41.2773 30.3203 41.7148 27.8906 42.5742 26.4062C43.4336 24.9062 44.7383 24.1094 46.4883 24.0156C47.2539 24.0156 47.9336 24.2266 48.5273 24.6484C49.1211 25.0703 49.5898 25.6094 49.9336 26.2656C50.293 26.9062 50.5898 27.6797 50.8242 28.5859C51.0586 29.4766 51.2148 30.3281 51.293 31.1406C51.3867 31.9375 51.4492 32.7891 51.4805 33.6953C51.4805 34.9297 51.293 36.1953 50.918 37.4922C50.5586 38.7734 49.9961 39.8984 49.2305 40.8672C48.4805 41.8203 47.6367 42.2969 46.6992 42.2969C43.0742 42.2969 41.2617 39.4297 41.2617 33.6953ZM46.1602 25.8203C45.7852 25.8984 45.4492 26.0234 45.1523 26.1953C44.8555 26.3672 44.6055 26.5625 44.4023 26.7812C44.2148 27 44.0508 27.2891 43.9102 27.6484C43.7695 28.0078 43.6602 28.3438 43.582 28.6562C43.5195 28.9531 43.457 29.3438 43.3945 29.8281C43.3477 30.3125 43.3164 30.7344 43.3008 31.0938C43.2852 31.4375 43.2617 31.8984 43.2305 32.4766C43.2148 33.0391 43.1914 33.5 43.1602 33.8594C43.1602 34.5781 43.1992 35.2656 43.2773 35.9219C43.3555 36.5625 43.4961 37.2344 43.6992 37.9375C43.918 38.6406 44.2539 39.2109 44.707 39.6484C45.1602 40.0859 45.707 40.3359 46.3477 40.3984C47.3164 40.3984 48.1133 39.7266 48.7383 38.3828C49.3789 37.0391 49.6992 35.6797 49.6992 34.3047C49.6992 28.7109 48.5195 25.8828 46.1602 25.8203ZM60.3867 29.1719L61.6992 29.4062C61.6992 29.7344 61.707 29.9766 61.7227 30.1328C62.582 29.5859 63.4492 29.3125 64.3242 29.3125C65.7461 29.3125 66.8555 29.9219 67.6523 31.1406C68.4492 32.3594 68.8477 33.7422 68.8477 35.2891C68.8477 36.0703 68.7852 36.8203 68.6602 37.5391C68.5508 38.2422 68.3477 38.9688 68.0508 39.7188C67.7539 40.4531 67.293 41.0469 66.668 41.5C66.0586 41.9375 65.3164 42.1562 64.4414 42.1562C63.6133 42.1562 62.8164 41.9375 62.0508 41.5C62.1133 44.2344 62.168 46.2656 62.2148 47.5938C62.0742 48.0781 61.8008 48.3203 61.3945 48.3203C61.1133 48.3203 60.8398 48.2031 60.5742 47.9688C60.3242 47.75 60.168 47.4766 60.1055 47.1484L60.3867 29.1719ZM61.9102 31.6562L61.9805 39.2266C62.168 39.6016 62.457 39.9062 62.8477 40.1406C63.2383 40.3594 63.668 40.4688 64.1367 40.4688C64.7461 40.4688 65.2617 40.2734 65.6836 39.8828C66.1211 39.4922 66.4258 38.9766 66.5977 38.3359C66.7852 37.6797 66.9102 37.0703 66.9727 36.5078C67.0508 35.9453 67.0898 35.3516 67.0898 34.7266C67.0898 32.0703 66.1914 30.7422 64.3945 30.7422C63.8164 30.7422 63.2773 30.8281 62.7773 31C62.293 31.1562 62.0039 31.375 61.9102 31.6562ZM72.4336 48.4375L70.9805 47.6172C71.6211 46.5078 72.7539 44.3984 74.3789 41.2891C73.1133 40.1641 72.1445 38.4609 71.4727 36.1797C70.8008 33.8984 70.3945 31.6172 70.2539 29.3359L71.6133 29.4062C71.6914 29.7812 71.8555 30.6406 72.1055 31.9844C72.3711 33.3125 72.582 34.2969 72.7383 34.9375C72.8945 35.5781 73.168 36.3828 73.5586 37.3516C73.9648 38.3047 74.4258 39.1094 74.9414 39.7656C77.1133 35.5938 78.1992 32.1719 78.1992 29.5V29.2422C79.0117 29.3672 79.6211 29.5156 80.0273 29.6875C79.7773 31.3281 79.3867 33 78.8555 34.7031C78.3242 36.4062 77.6602 38.125 76.8633 39.8594C76.0664 41.5781 75.3555 43.0234 74.7305 44.1953C74.1211 45.3672 73.3555 46.7812 72.4336 48.4375ZM82.5586 30.3438C82.9336 30.0469 83.4023 29.8047 83.9648 29.6172C84.543 29.4141 85.0508 29.3125 85.4883 29.3125C88.3945 29.3125 89.8477 30.9922 89.8477 34.3516C89.8477 35.0703 89.793 35.8359 89.6836 36.6484C89.5742 37.4453 89.3789 38.3203 89.0977 39.2734C88.832 40.2266 88.4023 41.0078 87.8086 41.6172C87.2305 42.2422 86.5273 42.5547 85.6992 42.5547C84.8086 42.5547 84.0508 42.3203 83.4258 41.8516C82.8008 41.3828 82.3086 40.6953 81.9492 39.7891C81.6055 38.8828 81.3555 37.8672 81.1992 36.7422C81.0586 35.6016 80.9883 34.2734 80.9883 32.7578C80.9883 31.2266 81.1758 29.8594 81.5508 28.6562C81.9414 27.4531 82.5273 26.3984 83.3086 25.4922C84.0898 24.5859 84.9648 23.8047 85.9336 23.1484C86.9023 22.4922 88.0742 21.8438 89.4492 21.2031C89.543 21.3281 89.6445 21.4375 89.7539 21.5312C89.8789 21.6094 89.9883 21.7344 90.082 21.9062C90.1914 22.0781 90.3555 22.4141 90.5742 22.9141C90.2773 23.0859 89.8008 23.3438 89.1445 23.6875C88.4883 24.0312 87.9414 24.3281 87.5039 24.5781C87.0664 24.8125 86.543 25.1484 85.9336 25.5859C85.3398 26.0078 84.8398 26.4297 84.4336 26.8516C84.043 27.2578 83.668 27.7734 83.3086 28.3984C82.9648 29.0078 82.7148 29.6562 82.5586 30.3438ZM88.043 34.2109C88.043 33.0547 87.7773 32.1953 87.2461 31.6328C86.7148 31.0547 86.0039 30.7656 85.1133 30.7656C84.2852 30.7656 83.6133 31.125 83.0977 31.8438C82.582 32.5469 82.3242 33.4062 82.3242 34.4219C82.3242 35.0312 82.3711 35.6797 82.4648 36.3672C82.5742 37.0547 82.7305 37.75 82.9336 38.4531C83.1523 39.1406 83.457 39.7109 83.8477 40.1641C84.2539 40.6172 84.707 40.8438 85.207 40.8438C87.0977 40.8438 88.043 38.6328 88.043 34.2109Z" fill="white"/>
</svg>
